<svg version="1.1" id="_レイヤー_2" xmlns="http://www.w3.org/2000/svg" xmlns:xlink="http://www.w3.org/1999/xlink" x="0px"
	 y="0px" viewBox="0 0 44 8" width="98px" height="30px" xml:space="preserve">
<style type="text/css">
	.st0{fill:url(#SVGID_1_);}
	.st1{fill:#616A74;}
	.st2{fill:#02253A;}
</style>
<g id="_ロゴマーク">
	<g>
		<g>
			
				<linearGradient id="SVGID_1_" gradientUnits="userSpaceOnUse" x1="0.2307" y1="662.0028" x2="7.8543" y2="669.6264" gradientTransform="matrix(1 0 0 1 0 -661.5)">
				<stop  offset="0" style="stop-color:#0077D3"/>
				<stop  offset="1" style="stop-color:#003B6F"/>
			</linearGradient>
			<path class="st0" d="M3.3,5.8c0.2-0.2,0.4-0.3,0.6-0.2H4c0.4,0,0.7-0.2,1-0.5c0.1-0.2,0.3-0.3,0.6-0.3l0.5-0.1
				c0.2,0,0.5,0,0.6,0.2c0.2,0.2,0.4,0.3,0.6,0.3c0.4,0,0.8-0.3,0.8-0.8S7.8,3.5,7.3,3.5c-0.2,0-0.4,0.1-0.6,0.3
				C6.6,3.9,6.3,4,6.1,4H5.8C5.5,3.9,5.4,3.6,5.6,3.5l1.1-1.3C6.9,2,7.1,1.9,7.3,1.9h0.1C7.8,1.8,8,1.5,8.1,1.2
				c0-0.5-0.3-0.9-0.8-0.9c-0.2,0-0.4,0.1-0.6,0.2C6.6,0.7,6.3,0.8,6.1,0.8H5.2C5,0.8,4.8,0.7,4.6,0.6C4.5,0.4,4.3,0.3,4,0.3
				S3.6,0.4,3.5,0.5C3.3,0.7,3.1,0.8,2.9,0.8H2c-0.2,0-0.4-0.1-0.6-0.2C1.2,0.4,1,0.3,0.8,0.3C0.4,0.3,0,0.6,0,1.1S0.3,2,0.8,2
				C1,2,1.2,1.9,1.4,1.8C1.5,1.6,1.8,1.6,2,1.6h0.9c0.2,0,0.4,0.1,0.6,0.2C3.6,2,3.9,2,4.1,2c0.2,0,0.4-0.1,0.6-0.2
				c0.2-0.2,0.4-0.2,0.6-0.2h0.6c0.3,0,0.4,0.3,0.2,0.5L5,3.1c-0.4,0-0.6,0.1-0.8,0H4.1c-0.4,0-0.8,0.2-1,0.5C3,3.8,2.8,3.9,2.5,3.9
				L2,4C1.8,4,1.5,4,1.4,3.8C1.2,3.6,1,3.5,0.8,3.5C0.4,3.5,0,3.8,0,4.3s0.3,0.9,0.8,0.9C1,5.2,1.2,5.1,1.4,5
				c0.2-0.2,0.4-0.2,0.7-0.2h0.3c0.2,0,0.3,0.3,0.2,0.5L1.4,6.5C1.2,6.7,1,6.8,0.8,6.8H0.7C0.3,6.9,0,7.2,0,7.5C0,8,0.3,8.4,0.8,8.4
				c0.2,0,0.4-0.1,0.6-0.2C1.6,8,1.8,8,2,8h0.9c0.2,0,0.4,0.1,0.6,0.2c0.1,0.2,0.4,0.2,0.6,0.2c0.2,0,0.4-0.1,0.6-0.2
				C4.9,8,5.1,8,5.3,8h0.9c0.2,0,0.4,0.1,0.6,0.2c0.1,0.2,0.4,0.2,0.6,0.2c0.4,0,0.8-0.3,0.8-0.8S7.9,6.7,7.4,6.7
				C7.2,6.7,7,6.8,6.8,6.9C6.6,7.2,6.3,7.3,6.1,7.3H5.2C5,7.3,4.8,7.2,4.6,7.1C4.5,6.9,4.3,6.8,4,6.8S3.6,6.9,3.5,7
				C3.3,7.2,3.1,7.3,2.9,7.3H2.3C2,7.3,1.9,7,2.1,6.8L3.3,5.8L3.3,5.8z"/>
			<g>
				<g>
					<path class="st1" d="M26.3,2.9c-0.2-0.2-0.5-0.3-0.8-0.3c-0.5,0-0.8,0.3-0.8,0.7c0,0.4,0.3,0.6,0.8,0.7
						c0.5,0.2,1.1,0.4,1.1,1.2c0,0.7-0.5,1.2-1.4,1.2c-0.4,0-0.8-0.1-1.1-0.3l0.1-0.4c0.3,0.2,0.6,0.3,1,0.3c0.5,0,1-0.2,1-0.7
						c0-0.4-0.3-0.6-0.6-0.7c-0.8-0.3-1.3-0.5-1.3-1.2s0.5-1.1,1.3-1.1c0.3,0,0.6,0.1,0.9,0.2L26.3,2.9L26.3,2.9z"/>
					<path class="st1" d="M27.3,2.5h0.5v0.9h0.9v0.4h-0.9v1.7c0,0.3,0,0.5,0.5,0.5c0.1,0,0.2,0,0.4,0v0.4c-0.1,0-0.3,0-0.5,0
						c-0.8,0-0.9-0.5-0.9-1V3.8h-0.4V3.3h0.4V2.5L27.3,2.5z"/>
					<path class="st1" d="M31.8,3.3v3h-0.5V6c-0.3,0.5-0.9,0.5-1,0.5c-0.5,0-0.8-0.3-0.9-0.5c-0.1-0.2-0.1-0.4-0.1-0.9V3.3h0.5V5
						c0,0.5,0,1,0.7,1c0.1,0,0.8,0,0.8-1V3.3H31.8L31.8,3.3z"/>
					<path class="st1" d="M34.8,6c-0.3,0.3-0.6,0.5-1,0.5c-0.8,0-1.4-0.6-1.4-1.6s0.6-1.6,1.4-1.6c0.4,0,0.7,0.2,1,0.5V2.1h0.5v4.2
						h-0.5V6L34.8,6z M33.9,3.7c-0.7,0-1,0.7-1,1.2s0.2,1.2,1,1.2c0.4,0,0.9-0.2,0.9-1.2S34.3,3.7,33.9,3.7z"/>
					<path class="st1" d="M37,6.2l-1.1-2.8h0.5l0.9,2.2l0.9-2.2h0.5l-1.8,4.4h-0.5L37,6.2L37,6.2z"/>
				</g>
				<g>
					<path class="st2" d="M11.3,6.4V6.1l2-3.2h-2V2.3h3.2v0.3l-2,3.2h2.1v0.6H11.3z"/>
					<path class="st2" d="M18,4v0.6h-1.9v1.1h2.1v0.7h-2.9v-4h2.8v0.7H16v1L18,4L18,4z"/>
					<path class="st2" d="M22.1,6.4l-2.4-2.6v2.5h-0.8v-4h0.4l2.3,2.4V2.3h0.8v4.1C22.5,6.4,22.1,6.4,22.1,6.4z"/>
				</g>
			</g>
		</g>
	</g>
</g>
</svg>
