<?xml version="1.0" encoding="UTF-8"?>
<svg id="_レイヤー_2" data-name="レイヤー 2" xmlns="http://www.w3.org/2000/svg" xmlns:xlink="http://www.w3.org/1999/xlink" viewBox="0 0 439.88 135">
  <defs>
    <style>
      .cls-1 {
        fill: none;
      }

      .cls-1, .cls-2, .cls-3, .cls-4 {
        stroke-width: 0px;
      }

      .cls-2 {
        fill: url(#_名称未設定グラデーション_19);
      }

      .cls-3 {
        fill: #02253a;
      }

      .cls-4 {
        fill: #616a74;
      }
    </style>
    <linearGradient id="_名称未設定グラデーション_19" data-name="名称未設定グラデーション 19" x1="29.39" y1="29.39" x2="105.61" y2="105.61" gradientUnits="userSpaceOnUse">
      <stop offset="0" stop-color="#0077d3"/>
      <stop offset="1" stop-color="#003b6f"/>
    </linearGradient>
  </defs>
  <g id="_ロゴマーク" data-name="ロゴマーク">
    <g>
      <path class="cls-1" d="M0,0v135h439.88V0H0Z"/>
      <g>
        <path class="cls-2" d="M59.95,81.58c1.73-1.54,4.03-2.22,6.34-1.99.4.04.8.06,1.21.06,3.93,0,7.42-1.87,9.64-4.76,1.3-1.69,3.27-2.74,5.39-2.99l5.35-.62c2.33-.27,4.71.43,6.4,2.06,1.46,1.41,3.45,2.27,5.64,2.26,4.24-.02,7.83-3.42,8.05-7.65.25-4.68-3.47-8.55-8.09-8.55-2.16,0-4.12.84-5.57,2.22-1.74,1.66-4.18,2.37-6.57,2.09l-3.22-.38c-2.28-.27-3.31-2.98-1.79-4.7l11.28-12.7c1.49-1.68,3.62-2.73,5.87-2.73.45,0,.91-.04,1.38-.12,3.58-.61,6.37-3.62,6.69-7.23.43-4.81-3.34-8.85-8.07-8.85-2.29,0-4.35.95-5.82,2.47-1.5,1.55-3.58,2.39-5.74,2.39h-9.28c-2.15,0-4.24-.84-5.74-2.39s-3.54-2.47-5.82-2.47-4.35.95-5.82,2.47c-1.5,1.55-3.58,2.39-5.74,2.39h-9.29c-2.17,0-4.26-.87-5.78-2.43s-3.54-2.44-5.82-2.43c-4.24.02-7.83,3.42-8.05,7.65-.25,4.68,3.47,8.55,8.09,8.55,2.29,0,4.35-.95,5.82-2.47,1.5-1.55,3.58-2.39,5.74-2.39h9.28c2.15,0,4.24.84,5.74,2.39,1.47,1.52,3.54,2.47,5.82,2.47s4.35-.95,5.82-2.47c1.5-1.55,3.58-2.39,5.74-2.39h5.52c2.61,0,3.83,3.22,1.88,4.95l-11.41,10.13c-1.73,1.54-4.04,2.22-6.34,1.99-.4-.04-.8-.06-1.21-.06-3.93,0-7.42,1.87-9.64,4.76-1.3,1.69-3.27,2.74-5.38,2.99l-5.37.63c-2.33.27-4.71-.43-6.4-2.06-1.46-1.41-3.45-2.27-5.64-2.26-4.24.02-7.83,3.42-8.05,7.65-.25,4.68,3.47,8.55,8.09,8.55,2.16,0,4.12-.85,5.57-2.22,1.74-1.66,4.18-2.37,6.57-2.09l3.23.38c2.28.27,3.31,2.98,1.79,4.7l-11.28,12.71c-1.49,1.68-3.62,2.73-5.86,2.73-.45,0-.91.04-1.38.11-3.58.61-6.38,3.61-6.71,7.22-.44,4.82,3.34,8.86,8.06,8.86,2.29,0,4.35-.95,5.82-2.47,1.5-1.55,3.58-2.39,5.74-2.39h9.28c2.15,0,4.24.84,5.74,2.39,1.47,1.52,3.54,2.47,5.82,2.47s4.35-.95,5.82-2.47c1.5-1.55,3.58-2.39,5.74-2.39h9.28c2.17,0,4.26.87,5.78,2.43,1.48,1.51,3.54,2.44,5.82,2.43,4.24-.02,7.83-3.42,8.05-7.65.25-4.68-3.47-8.55-8.09-8.55-2.29,0-4.35.95-5.82,2.47-1.5,1.55-3.58,2.39-5.74,2.39h-9.28c-2.15,0-4.24-.84-5.74-2.39s-3.54-2.47-5.82-2.47-4.35.95-5.82,2.47c-1.5,1.55-3.58,2.39-5.74,2.39h-5.51c-2.61,0-3.83-3.22-1.88-4.95l11.4-10.13Z"/>
        <g>
          <g>
            <path class="cls-4" d="M289.73,53.42c-2.36-1.7-4.78-2.57-7.66-2.57-4.52,0-7.86,2.62-7.86,6.83s3.39,5.65,7.55,7.04c5.34,1.75,11.46,3.96,11.46,11.87,0,6.58-5.04,11.97-14.18,11.97-4.21,0-7.81-.98-11.31-3.24l1.44-4.37c2.93,2.11,6.01,3.19,9.66,3.19,4.68,0,9.51-2.21,9.51-7.25,0-4.01-3.03-6.06-5.91-7.04-8.07-2.83-13.05-4.52-13.05-11.97,0-6.94,5.4-11.46,12.54-11.46,3.29,0,6.17.82,9.04,2.42l-1.23,4.57Z"/>
            <path class="cls-4" d="M300.33,48.8h4.57v8.68h9.2v4.27h-9.2v17.27c0,2.83,0,5.34,4.68,5.34.67,0,1.85-.05,4.11-.36v4.21c-1.08.15-2.67.36-4.78.36-8.38,0-8.58-5.04-8.58-9.56v-17.27h-3.91v-4.27h3.91v-8.68Z"/>
            <path class="cls-4" d="M345.37,57.48v30.27h-4.62v-4.01c-3.19,4.78-8.53,4.83-9.51,4.83-4.73,0-7.5-2.52-8.68-4.83-1.13-2.31-1.28-4.42-1.28-9.2v-17.06h4.57v17.06c0,4.78,0,9.81,6.53,9.81,1.44,0,8.38-.36,8.38-9.81v-17.06h4.62Z"/>
            <path class="cls-4" d="M375.47,83.74c-2.52,3.19-5.81,4.83-9.87,4.83-7.76,0-13.57-6.27-13.57-15.93s5.81-15.98,13.57-15.98c4.06,0,7.35,1.64,9.87,4.88v-16.19h4.62v42.39h-4.62v-4.01ZM366.27,60.93c-7.4,0-9.61,6.53-9.61,11.72s2.21,11.72,9.61,11.72c3.75,0,9.46-2.36,9.46-11.72s-5.7-11.72-9.46-11.72Z"/>
            <path class="cls-4" d="M396.9,85.54l-11.15-28.06h4.93l8.63,21.99,8.63-21.99h4.93l-17.63,43.94h-4.57l6.22-15.88Z"/>
          </g>
          <g>
            <path class="cls-3" d="M140.08,87.75v-2.32l20.26-31.79h-19.93v-6.39h31.66v2.32l-20.32,31.79h21.05v6.39h-32.72Z"/>
            <path class="cls-3" d="M206.56,63.64v6.39h-18.71v11.17h21.24v6.55h-29.16v-40.5h28.43v6.55h-20.51v9.85h18.71Z"/>
            <path class="cls-3" d="M248.02,88.24l-23.53-25.59v25.1h-8.27v-40.5h4.14l22.9,24.4v-24.4h8.27v40.99h-3.51Z"/>
          </g>
        </g>
      </g>
    </g>
  </g>
</svg>