<?xml version="1.0" encoding="utf-8"?>
<!-- Generator: Adobe Illustrator 28.3.0, SVG Export Plug-In . SVG Version: 6.00 Build 0)  -->
<svg version="1.1" id="_レイヤー_2" xmlns="http://www.w3.org/2000/svg" xmlns:xlink="http://www.w3.org/1999/xlink" x="0px"
	 y="0px" viewBox="0 0 44 13.5" style="enable-background:new 0 0 44 13.5;" xml:space="preserve" height="30" width="97.77">
<style type="text/css">
	.st0{fill:none;}
	.st1{fill:url(#SVGID_1_);}
	.st2{fill:#616A74;}
	.st3{fill:#02253A;}
</style>
<g id="_ロゴマーク">
	<g>
		<path class="st0" d="M0,0v13.5h44V0H0z"/>
		<g>
			
				<linearGradient id="SVGID_1_" gradientUnits="userSpaceOnUse" x1="2.9356" y1="10.5617" x2="10.5592" y2="2.9381" gradientTransform="matrix(1 0 0 -1 0 13.5)">
				<stop  offset="0" style="stop-color:#0077D3"/>
				<stop  offset="1" style="stop-color:#003B6F"/>
			</linearGradient>
			<path class="st1" d="M6,8.2C6.2,8,6.4,7.9,6.6,8c0,0,0.1,0,0.1,0c0.4,0,0.7-0.2,1-0.5C7.8,7.3,8,7.2,8.3,7.2l0.5-0.1
				c0.2,0,0.5,0,0.6,0.2C9.6,7.5,9.8,7.6,10,7.6c0.4,0,0.8-0.3,0.8-0.8c0-0.5-0.3-0.9-0.8-0.9C9.8,5.9,9.6,6,9.4,6.2
				C9.3,6.3,9,6.4,8.8,6.4l-0.3,0C8.2,6.3,8.1,6,8.3,5.9l1.1-1.3C9.6,4.4,9.8,4.3,10,4.3c0,0,0.1,0,0.1,0c0.4-0.1,0.6-0.4,0.7-0.7
				c0-0.5-0.3-0.9-0.8-0.9c-0.2,0-0.4,0.1-0.6,0.2C9.3,3.1,9,3.2,8.8,3.2H7.9c-0.2,0-0.4-0.1-0.6-0.2C7.2,2.8,7,2.7,6.7,2.7
				S6.3,2.8,6.2,2.9C6,3.1,5.8,3.2,5.6,3.2H4.7c-0.2,0-0.4-0.1-0.6-0.2C3.9,2.8,3.7,2.7,3.5,2.7C3.1,2.7,2.7,3,2.7,3.5
				c0,0.5,0.3,0.9,0.8,0.9c0.2,0,0.4-0.1,0.6-0.2c0.1-0.2,0.4-0.2,0.6-0.2h0.9c0.2,0,0.4,0.1,0.6,0.2c0.1,0.2,0.4,0.2,0.6,0.2
				c0.2,0,0.4-0.1,0.6-0.2c0.2-0.2,0.4-0.2,0.6-0.2h0.6c0.3,0,0.4,0.3,0.2,0.5l-1.1,1C7.3,5.5,7.1,5.6,6.9,5.5c0,0-0.1,0-0.1,0
				C6.4,5.5,6,5.7,5.8,6C5.7,6.2,5.5,6.3,5.2,6.3L4.7,6.4c-0.2,0-0.5,0-0.6-0.2C3.9,6,3.7,5.9,3.5,5.9c-0.4,0-0.8,0.3-0.8,0.8
				c0,0.5,0.3,0.9,0.8,0.9c0.2,0,0.4-0.1,0.6-0.2c0.2-0.2,0.4-0.2,0.7-0.2l0.3,0c0.2,0,0.3,0.3,0.2,0.5L4.1,8.9
				C3.9,9.1,3.7,9.2,3.5,9.2c0,0-0.1,0-0.1,0C3,9.3,2.7,9.6,2.7,9.9c0,0.5,0.3,0.9,0.8,0.9c0.2,0,0.4-0.1,0.6-0.2
				c0.2-0.2,0.4-0.2,0.6-0.2h0.9c0.2,0,0.4,0.1,0.6,0.2c0.1,0.2,0.4,0.2,0.6,0.2c0.2,0,0.4-0.1,0.6-0.2c0.2-0.2,0.4-0.2,0.6-0.2h0.9
				c0.2,0,0.4,0.1,0.6,0.2c0.1,0.2,0.4,0.2,0.6,0.2c0.4,0,0.8-0.3,0.8-0.8c0-0.5-0.3-0.9-0.8-0.9c-0.2,0-0.4,0.1-0.6,0.2
				C9.3,9.6,9,9.7,8.8,9.7H7.9c-0.2,0-0.4-0.1-0.6-0.2C7.2,9.3,7,9.2,6.7,9.2S6.3,9.3,6.2,9.4C6,9.6,5.8,9.7,5.6,9.7H5
				c-0.3,0-0.4-0.3-0.2-0.5L6,8.2L6,8.2z"/>
			<g>
				<g>
					<path class="st2" d="M29,5.3c-0.2-0.2-0.5-0.3-0.8-0.3c-0.5,0-0.8,0.3-0.8,0.7c0,0.4,0.3,0.6,0.8,0.7c0.5,0.2,1.1,0.4,1.1,1.2
						c0,0.7-0.5,1.2-1.4,1.2c-0.4,0-0.8-0.1-1.1-0.3l0.1-0.4c0.3,0.2,0.6,0.3,1,0.3c0.5,0,1-0.2,1-0.7c0-0.4-0.3-0.6-0.6-0.7
						c-0.8-0.3-1.3-0.5-1.3-1.2c0-0.7,0.5-1.1,1.3-1.1c0.3,0,0.6,0.1,0.9,0.2L29,5.3L29,5.3z"/>
					<path class="st2" d="M30,4.9h0.5v0.9h0.9v0.4h-0.9v1.7c0,0.3,0,0.5,0.5,0.5c0.1,0,0.2,0,0.4,0v0.4c-0.1,0-0.3,0-0.5,0
						c-0.8,0-0.9-0.5-0.9-1V6.2h-0.4V5.7H30V4.9L30,4.9z"/>
					<path class="st2" d="M34.5,5.7v3h-0.5V8.4c-0.3,0.5-0.9,0.5-1,0.5c-0.5,0-0.8-0.3-0.9-0.5c-0.1-0.2-0.1-0.4-0.1-0.9V5.7h0.5
						v1.7c0,0.5,0,1,0.7,1c0.1,0,0.8,0,0.8-1V5.7H34.5L34.5,5.7z"/>
					<path class="st2" d="M37.5,8.4c-0.3,0.3-0.6,0.5-1,0.5c-0.8,0-1.4-0.6-1.4-1.6s0.6-1.6,1.4-1.6c0.4,0,0.7,0.2,1,0.5V4.5H38v4.2
						h-0.5V8.4L37.5,8.4z M36.6,6.1c-0.7,0-1,0.7-1,1.2s0.2,1.2,1,1.2c0.4,0,0.9-0.2,0.9-1.2S37,6.1,36.6,6.1z"/>
					<path class="st2" d="M39.7,8.6l-1.1-2.8h0.5l0.9,2.2l0.9-2.2h0.5l-1.8,4.4h-0.5L39.7,8.6L39.7,8.6z"/>
				</g>
				<g>
					<path class="st3" d="M14,8.8V8.5l2-3.2h-2V4.7h3.2V5l-2,3.2h2.1v0.6H14z"/>
					<path class="st3" d="M20.7,6.4V7h-1.9v1.1h2.1v0.7H18v-4h2.8v0.7h-2.1v1L20.7,6.4L20.7,6.4z"/>
					<path class="st3" d="M24.8,8.8l-2.4-2.6v2.5h-0.8v-4H22l2.3,2.4V4.7h0.8v4.1C25.2,8.8,24.8,8.8,24.8,8.8z"/>
				</g>
			</g>
		</g>
	</g>
</g>
</svg>
