<svg height="30" viewBox="-183 235 133 30" width="133" xmlns="http://www.w3.org/2000/svg"><path d="M-183 265h10v-30h-10z" fill="#006"/><path d="M-162.9 248.4l-10.1-9.9v13.1l10.1 9.9z" fill="#26dd56"/><g fill="#303030"><path d="M-103.4 246.8l-1.6-1.6-1.1 1.1 2.7 2.7 5.9-5.9h-12.2v1.5h8.5z"/><path d="M-112.9 249v1.6h8.7v5.3h-4.6v1.6h6.2v-6.9h3.3l-2.7 2.7 1.1 1.1 5.4-5.4zm26.7-6.7l-4.5 10.3 1.5.6 1.3-3.1v7.6h1.6v-11.2l1.6-3.6zm4.3 4.1h1.6v-1.2h2.5v1.2h1.6v-1.2h2.1v-1.5h-2.1v-1.6h-1.6v1.6h-2.5v-1.6h-1.6v1.6h-2.2v1.5h2.2zm-2.6.6v.5c0 1.8-.1 3.5-.1 4.9-.2 3.7-.6 4.3-.7 4.6l1.3.8c.6-1 .8-3.3.9-5.2.1-1.2.1-2.6.1-4h9.8V247zm24 .4v-1.6h-1.7v-3.6h-1.6v3.6h-2.3v1.6h2.3l-3 7 1.4.6 1.6-4.3v7h1.6v-7.1l.7 1.9 1.4-.6-2.1-4.5zm7 5.8c1.1-1.5 1.5-2.7 1.5-2.7l-1.6-.4s-.3 1-1.3 2.3c-.1.1-.2.2-.2.3-.1-.1-.2-.2-.2-.3-1-1.3-1.3-2.3-1.3-2.3l-.8.2-.8.2s.4 1.2 1.5 2.7c.2.2.3.5.6.7-1.1 1-2.4 1.9-3.9 2.6l.7 1.4c1.8-.8 3.2-1.8 4.2-2.8 1 1 2.4 2 4.2 2.8l.7-1.4c-1.5-.7-2.8-1.5-3.9-2.6.2-.2.4-.5.6-.7m2.6-9.2h-3.5v-1.8h-1.5v1.8h-3.6v1.5h8.6zm-5.1 2.8l-1.3-.9-2.6 3.7 1.3.9zm1.7 0l2.5 3.7 1.3-.9-2.6-3.7z"/><path d="M-74 256.7v-7.4h-8.2v8.5h1.5v-2h1.9v1h1.5v-1h1.9v.3l-1.7 1.7h2.1zm-4.9-2.5h-1.9v-1h1.9zm0-2.5h-1.9v-.9h1.9zm3.4 2.5h-1.9v-1h1.9zm0-2.5h-1.9v-.9h1.9zm-57.5 6h1.7v-9.3l-1.7-2zm10.9-14.7v11.4l-9.7-11.4h-1.2v1.3l1.9 2.2 9.4 11.2h1.2V243z"/></g><path d="M-163 265h10v-30h-10z" fill="#006"/></svg>
